<svg width="64" height="64" viewBox="0 0 64 64" fill="none" xmlns="http://www.w3.org/2000/svg">
<path d="M12 4H52C56.4 4 60 7.6 60 12V52C60 56.4 56.4 60 52 60H12C7.6 60 4 56.4 4 52V12C4 7.6 7.6 4 12 4Z" fill="#4142c9"/>
<path d="M42.5999 19.4C41.3999 19.4 40.2 20.4 40.2 21.8C40.2 23.2 41.1999 24.2 42.5999 24.2C43.9999 24.2 45 23.2 45 21.8C44.8 20.4 43.7999 19.4 42.5999 19.4Z" fill="white"/>
<path d="M32 22.4C26.6 22.4 22.2 26.8 22.2 32.2C22.2 37.6 26.6 42 32 42C37.4 42 41.7999 37.6 41.7999 32.2C41.9999 26.8 37.6 22.4 32 22.4ZM32 38.6C28.6 38.6 25.6 35.8 25.6 32.2C25.6 28.8 28.4 25.8 32 25.8C35.4 25.8 38.4 28.6 38.4 32.2C38.4 35.8 35.6 38.6 32 38.6Z" fill="white"/>
<path d="M40 12H24C17.4 12 12 17.4 12 24V40C12 46.6 17.4 52 24 52H40C46.6 52 52 46.6 52 40V24C52 17.4 46.6 12 40 12ZM48.2 40C48.2 44.6 44.4 48.2 40 48.2H24C19.4 48.2 15.8 44.4 15.8 40V24C15.8 19.4 19.6 15.8 24 15.8H40C44.6 15.8 48.2 19.6 48.2 24V40Z" fill="white"/>
</svg>
