<svg width="202" height="40" viewBox="0 0 202 40" fill="none" xmlns="http://www.w3.org/2000/svg">
<path d="M46.2641 31C46.0507 31 45.8694 30.9253 45.7201 30.776C45.5707 30.6267 45.4961 30.4453 45.4961 30.232V9.4C45.4961 9.16533 45.5707 8.97333 45.7201 8.824C45.8694 8.67467 46.0507 8.6 46.2641 8.6H54.5521C57.1334 8.6 59.1707 9.19733 60.6641 10.392C62.1574 11.5867 62.9041 13.3253 62.9041 15.608C62.9041 17.1867 62.5094 18.4987 61.7201 19.544C60.9521 20.5893 59.9174 21.3467 58.6161 21.816L63.2881 29.976C63.3521 30.104 63.3841 30.2213 63.3841 30.328C63.3841 30.52 63.3094 30.68 63.1601 30.808C63.0321 30.936 62.8827 31 62.7121 31H59.8001C59.4374 31 59.1601 30.904 58.9681 30.712C58.7761 30.52 58.6267 30.328 58.5201 30.136L54.3921 22.552H49.9441V30.232C49.9441 30.4453 49.8694 30.6267 49.7201 30.776C49.5921 30.9253 49.4107 31 49.1761 31H46.2641ZM49.9441 18.936H54.4561C55.7574 18.936 56.7281 18.648 57.3681 18.072C58.0081 17.4747 58.3281 16.6427 58.3281 15.576C58.3281 14.5093 58.0081 13.6773 57.3681 13.08C56.7494 12.4613 55.7787 12.152 54.4561 12.152H49.9441V18.936ZM71.9753 31.32C70.866 31.32 69.8633 31.1067 68.9673 30.68C68.0713 30.232 67.3566 29.6453 66.8233 28.92C66.3113 28.1733 66.0553 27.3413 66.0553 26.424C66.0553 24.9307 66.6526 23.7467 67.8473 22.872C69.0633 21.976 70.6633 21.3787 72.6473 21.08L77.0313 20.44V19.768C77.0313 18.872 76.8073 18.1787 76.3593 17.688C75.9113 17.1973 75.1433 16.952 74.0553 16.952C73.2873 16.952 72.658 17.112 72.1673 17.432C71.698 17.7307 71.346 18.136 71.1113 18.648C70.9406 18.9253 70.6953 19.064 70.3753 19.064H67.8473C67.6126 19.064 67.4313 19 67.3033 18.872C67.1966 18.744 67.1433 18.5733 67.1433 18.36C67.1646 18.0187 67.3033 17.6027 67.5593 17.112C67.8153 16.6213 68.2206 16.152 68.7753 15.704C69.33 15.2347 70.0446 14.84 70.9193 14.52C71.794 14.2 72.85 14.04 74.0873 14.04C75.4313 14.04 76.562 14.2107 77.4793 14.552C78.418 14.872 79.1646 15.3093 79.7193 15.864C80.274 16.4187 80.6793 17.0693 80.9353 17.816C81.1913 18.5627 81.3193 19.352 81.3193 20.184V30.232C81.3193 30.4453 81.2446 30.6267 81.0953 30.776C80.946 30.9253 80.7646 31 80.5513 31H77.9593C77.7246 31 77.5326 30.9253 77.3833 30.776C77.2553 30.6267 77.1913 30.4453 77.1913 30.232V28.984C76.914 29.3893 76.5406 29.7733 76.0713 30.136C75.602 30.4773 75.026 30.7653 74.3433 31C73.682 31.2133 72.8926 31.32 71.9753 31.32ZM73.0633 28.28C73.81 28.28 74.482 28.12 75.0793 27.8C75.698 27.48 76.178 26.9893 76.5193 26.328C76.882 25.6453 77.0633 24.792 77.0633 23.768V23.096L73.8633 23.608C72.6046 23.8 71.666 24.1093 71.0473 24.536C70.4286 24.9627 70.1193 25.4853 70.1193 26.104C70.1193 26.5733 70.258 26.9787 70.5353 27.32C70.834 27.64 71.2073 27.8853 71.6553 28.056C72.1033 28.2053 72.5726 28.28 73.0633 28.28ZM86.6926 31C86.4792 31 86.2979 30.9253 86.1486 30.776C85.9992 30.6267 85.9246 30.4453 85.9246 30.232V15.16C85.9246 14.9253 85.9992 14.7333 86.1486 14.584C86.2979 14.4347 86.4792 14.36 86.6926 14.36H89.2846C89.4979 14.36 89.6792 14.4347 89.8286 14.584C89.9992 14.7333 90.0846 14.9253 90.0846 15.16V16.472C90.5752 15.7893 91.2046 15.2667 91.9726 14.904C92.7619 14.5413 93.6686 14.36 94.6926 14.36H96.0046C96.2392 14.36 96.4206 14.4347 96.5486 14.584C96.6979 14.7333 96.7726 14.9147 96.7726 15.128V17.432C96.7726 17.6453 96.6979 17.8267 96.5486 17.976C96.4206 18.1253 96.2392 18.2 96.0046 18.2H93.5086C92.4846 18.2 91.6846 18.488 91.1086 19.064C90.5539 19.64 90.2766 20.4293 90.2766 21.432V30.232C90.2766 30.4453 90.2019 30.6267 90.0526 30.776C89.9032 30.9253 89.7112 31 89.4766 31H86.6926ZM106.718 31.32C104.35 31.32 102.472 30.6373 101.086 29.272C99.6989 27.9067 98.9522 25.9653 98.8456 23.448C98.8242 23.2347 98.8136 22.968 98.8136 22.648C98.8136 22.3067 98.8242 22.04 98.8456 21.848C98.9309 20.248 99.2936 18.8613 99.9336 17.688C100.595 16.5147 101.502 15.6187 102.654 15C103.806 14.36 105.16 14.04 106.718 14.04C108.446 14.04 109.896 14.4027 111.07 15.128C112.243 15.832 113.128 16.824 113.726 18.104C114.323 19.3627 114.622 20.824 114.622 22.488V23.16C114.622 23.3733 114.547 23.5547 114.398 23.704C114.248 23.8533 114.056 23.928 113.822 23.928H103.198C103.198 23.928 103.198 23.96 103.198 24.024C103.198 24.088 103.198 24.1413 103.198 24.184C103.219 24.9307 103.358 25.624 103.614 26.264C103.891 26.8827 104.286 27.384 104.798 27.768C105.331 28.152 105.96 28.344 106.686 28.344C107.283 28.344 107.784 28.2587 108.19 28.088C108.595 27.896 108.926 27.6827 109.182 27.448C109.438 27.2133 109.619 27.0213 109.726 26.872C109.918 26.616 110.067 26.4667 110.174 26.424C110.302 26.36 110.483 26.328 110.718 26.328H113.47C113.683 26.328 113.854 26.392 113.982 26.52C114.131 26.648 114.195 26.808 114.174 27C114.152 27.3413 113.971 27.7573 113.63 28.248C113.31 28.7387 112.84 29.2187 112.222 29.688C111.603 30.1573 110.824 30.552 109.886 30.872C108.968 31.1707 107.912 31.32 106.718 31.32ZM103.198 21.24H110.27V21.144C110.27 20.312 110.131 19.5867 109.854 18.968C109.576 18.3493 109.171 17.8587 108.638 17.496C108.104 17.1333 107.464 16.952 106.718 16.952C105.971 16.952 105.331 17.1333 104.798 17.496C104.264 17.8587 103.859 18.3493 103.582 18.968C103.326 19.5867 103.198 20.312 103.198 21.144V21.24ZM119.67 31C119.457 31 119.276 30.9253 119.126 30.776C118.977 30.6267 118.902 30.4453 118.902 30.232V9.4C118.902 9.16533 118.977 8.97333 119.126 8.824C119.276 8.67467 119.457 8.6 119.67 8.6H128.95C130.678 8.6 132.086 8.86667 133.174 9.4C134.262 9.912 135.062 10.6267 135.574 11.544C136.108 12.4613 136.374 13.528 136.374 14.744C136.374 15.5547 136.225 16.2693 135.926 16.888C135.649 17.4853 135.297 17.976 134.87 18.36C134.465 18.744 134.06 19.0427 133.654 19.256C134.486 19.64 135.222 20.28 135.862 21.176C136.502 22.072 136.822 23.1387 136.822 24.376C136.822 25.656 136.534 26.7973 135.958 27.8C135.382 28.8027 134.529 29.592 133.398 30.168C132.268 30.7227 130.87 31 129.206 31H119.67ZM123.35 27.608H128.694C129.846 27.608 130.721 27.2987 131.318 26.68C131.916 26.04 132.214 25.272 132.214 24.376C132.214 23.4373 131.905 22.6587 131.286 22.04C130.689 21.4213 129.825 21.112 128.694 21.112H123.35V27.608ZM123.35 17.784H128.374C129.505 17.784 130.348 17.5173 130.902 16.984C131.478 16.4293 131.766 15.7147 131.766 14.84C131.766 13.944 131.478 13.2507 130.902 12.76C130.348 12.248 129.505 11.992 128.374 11.992H123.35V17.784ZM148.316 31.32C146.609 31.32 145.169 31.0213 143.996 30.424C142.844 29.8267 141.958 28.984 141.34 27.896C140.742 26.808 140.401 25.5387 140.316 24.088C140.294 23.704 140.284 23.2347 140.284 22.68C140.284 22.1253 140.294 21.656 140.316 21.272C140.401 19.8 140.753 18.5307 141.372 17.464C142.012 16.376 142.908 15.5333 144.06 14.936C145.233 14.3387 146.652 14.04 148.316 14.04C149.98 14.04 151.388 14.3387 152.54 14.936C153.713 15.5333 154.609 16.376 155.228 17.464C155.868 18.5307 156.23 19.8 156.316 21.272C156.337 21.656 156.348 22.1253 156.348 22.68C156.348 23.2347 156.337 23.704 156.316 24.088C156.23 25.5387 155.878 26.808 155.26 27.896C154.662 28.984 153.777 29.8267 152.604 30.424C151.452 31.0213 150.022 31.32 148.316 31.32ZM148.316 28.152C149.446 28.152 150.321 27.8 150.94 27.096C151.558 26.3707 151.9 25.3147 151.964 23.928C151.985 23.608 151.996 23.192 151.996 22.68C151.996 22.168 151.985 21.752 151.964 21.432C151.9 20.0667 151.558 19.0213 150.94 18.296C150.321 17.5707 149.446 17.208 148.316 17.208C147.185 17.208 146.31 17.5707 145.692 18.296C145.073 19.0213 144.732 20.0667 144.668 21.432C144.646 21.752 144.636 22.168 144.636 22.68C144.636 23.192 144.646 23.608 144.668 23.928C144.732 25.3147 145.073 26.3707 145.692 27.096C146.31 27.8 147.185 28.152 148.316 28.152ZM167.753 31.32C166.047 31.32 164.607 31.0213 163.433 30.424C162.281 29.8267 161.396 28.984 160.777 27.896C160.18 26.808 159.839 25.5387 159.753 24.088C159.732 23.704 159.721 23.2347 159.721 22.68C159.721 22.1253 159.732 21.656 159.753 21.272C159.839 19.8 160.191 18.5307 160.809 17.464C161.449 16.376 162.345 15.5333 163.497 14.936C164.671 14.3387 166.089 14.04 167.753 14.04C169.417 14.04 170.825 14.3387 171.977 14.936C173.151 15.5333 174.047 16.376 174.665 17.464C175.305 18.5307 175.668 19.8 175.753 21.272C175.775 21.656 175.785 22.1253 175.785 22.68C175.785 23.2347 175.775 23.704 175.753 24.088C175.668 25.5387 175.316 26.808 174.697 27.896C174.1 28.984 173.215 29.8267 172.041 30.424C170.889 31.0213 169.46 31.32 167.753 31.32ZM167.753 28.152C168.884 28.152 169.759 27.8 170.377 27.096C170.996 26.3707 171.337 25.3147 171.401 23.928C171.423 23.608 171.433 23.192 171.433 22.68C171.433 22.168 171.423 21.752 171.401 21.432C171.337 20.0667 170.996 19.0213 170.377 18.296C169.759 17.5707 168.884 17.208 167.753 17.208C166.623 17.208 165.748 17.5707 165.129 18.296C164.511 19.0213 164.169 20.0667 164.105 21.432C164.084 21.752 164.073 22.168 164.073 22.68C164.073 23.192 164.084 23.608 164.105 23.928C164.169 25.3147 164.511 26.3707 165.129 27.096C165.748 27.8 166.623 28.152 167.753 28.152ZM180.631 31C180.417 31 180.236 30.9253 180.087 30.776C179.937 30.6267 179.863 30.4453 179.863 30.232V9.048C179.863 8.83467 179.937 8.65333 180.087 8.504C180.236 8.35467 180.417 8.28 180.631 8.28H183.223C183.457 8.28 183.639 8.35467 183.767 8.504C183.916 8.65333 183.991 8.83467 183.991 9.048V19.992L189.367 14.904C189.559 14.7333 189.729 14.6053 189.879 14.52C190.028 14.4133 190.252 14.36 190.551 14.36H193.527C193.74 14.36 193.911 14.424 194.039 14.552C194.167 14.68 194.231 14.8507 194.231 15.064C194.231 15.1493 194.209 15.2453 194.167 15.352C194.124 15.4587 194.039 15.5547 193.911 15.64L187.319 21.816L194.711 29.752C194.924 29.9653 195.031 30.1467 195.031 30.296C195.031 30.5093 194.956 30.68 194.807 30.808C194.679 30.936 194.519 31 194.327 31H191.287C190.967 31 190.732 30.9573 190.583 30.872C190.455 30.7653 190.295 30.6267 190.103 30.456L183.991 24.024V30.232C183.991 30.4453 183.916 30.6267 183.767 30.776C183.639 30.9253 183.457 31 183.223 31H180.631Z" fill="#3D3D3F"/>
<path d="M31.5665 3.68945H27.2182C25.8765 3.68945 24.7887 4.74845 24.7887 6.05488V10.2886C24.7887 11.595 25.8765 12.6541 27.2182 12.6541H31.5665C32.9083 12.6541 33.9961 11.595 33.9961 10.2886V6.05488C33.9961 4.74845 32.9083 3.68945 31.5665 3.68945Z" fill="#4142c9"/>
<path d="M14.5382 12.9064H18.3566C19.9366 12.9939 21.4397 13.6 22.6205 14.6259L22.7637 14.7809C23.8229 15.9272 24.4462 17.3926 24.5296 18.9324V22.6347C24.5296 23.2797 24.7928 23.8983 25.2613 24.3544C25.7297 24.8105 26.3651 25.0667 27.0276 25.0667H31.4983C32.1607 25.0667 32.7961 24.8105 33.2645 24.3544C33.7329 23.8983 33.9961 23.2797 33.9961 22.6347V18.2818C33.9961 17.6368 33.7329 17.0182 33.2645 16.5621C32.7961 16.106 32.1607 15.8498 31.4983 15.8498H27.6957C26.1143 15.7685 24.6092 15.1615 23.4318 14.1303L23.2728 13.9908C22.2169 12.8425 21.5941 11.3783 21.5067 9.83929V6.1215C21.5067 5.47652 21.2436 4.8579 20.7752 4.4018C20.3067 3.94571 19.6714 3.68945 19.0089 3.68945H14.5382C13.8757 3.68945 13.2404 3.94571 12.7719 4.4018C12.3035 4.8579 12.0403 5.47652 12.0403 6.1215V10.4745C12.0403 11.1194 12.3035 11.738 12.7719 12.1941C13.2404 12.6502 13.8757 12.9064 14.5382 12.9064Z" fill="#4142c9"/>
<path d="M32.2142 28.1472H28.4317C26.8572 28.0477 25.3654 27.4117 24.2079 26.3465L23.7824 25.9238C22.7332 24.765 22.1157 23.2837 22.033 21.7273V17.9693C22.0289 17.3186 21.7669 16.6957 21.3037 16.2355C20.8405 15.7753 20.2136 15.515 19.5586 15.511H15.7761C14.2146 15.4456 12.7232 14.8485 11.5524 13.8199L11.1269 13.3971C10.0776 12.2384 9.46013 10.7571 9.37741 9.20065V5.45839C9.37741 4.80638 9.1167 4.18106 8.65272 3.72C8.18868 3.25901 7.55932 3 6.90306 3H2.47435C1.81816 3 1.18873 3.25901 0.724755 3.72C0.260708 4.18106 0 4.80638 0 5.45839V9.85832C0 10.5103 0.260708 11.1356 0.724755 11.5966C1.18873 12.0577 1.81816 12.3167 2.47435 12.3167H6.24112C7.83165 12.389 9.34731 13.009 10.528 14.0704L10.9535 14.4932C11.9994 15.654 12.6164 17.134 12.7029 18.6895V22.4476C12.707 23.0983 12.969 23.7212 13.4322 24.1813C13.8953 24.6415 14.5223 24.9018 15.1772 24.9059H18.9597C20.509 25.0023 21.9803 25.6145 23.1363 26.644L23.5618 27.0668C24.6077 28.2275 25.2247 29.7076 25.3112 31.2632V35.0212C25.3153 35.6719 25.5773 36.2948 26.0405 36.7549C26.5036 37.2151 27.1306 37.4754 27.7855 37.4795H32.23C32.885 37.4754 33.512 37.2151 33.9751 36.7549C34.4382 36.2948 34.7003 35.6719 34.7044 35.0212V30.6055C34.7002 29.9521 34.436 29.3268 33.9695 28.8662C33.503 28.4057 32.8719 28.1471 32.2142 28.1472Z" fill="#4142c9"/>
<path d="M7.29917 27.8251H2.61635C1.17138 27.8251 0 28.8842 0 30.1906V34.4244C0 35.7308 1.17138 36.7898 2.61635 36.7898H7.29917C8.74414 36.7898 9.91552 35.7308 9.91552 34.4244V30.1906C9.91552 28.8842 8.74414 27.8251 7.29917 27.8251Z" fill="#4142c9"/>
<path d="M19.458 27.5729H15.6554C14.074 27.4916 12.5689 26.8848 11.3915 25.8535L11.2325 25.7141C10.1699 24.5576 9.54661 23.0814 9.46644 21.5316V17.8138C9.45858 17.1874 9.20276 16.5881 8.75224 16.1407C8.30172 15.6935 7.69127 15.4326 7.04811 15.4127H2.49787C1.83537 15.4127 1.20006 15.669 0.731624 16.1251C0.263185 16.5812 0 17.1997 0 17.8448V22.1977C0 22.8427 0.263185 23.4613 0.731624 23.9174C1.20006 24.3735 1.83537 24.6297 2.49787 24.6297H6.31627C7.89631 24.7171 9.39937 25.3232 10.5802 26.3492L10.7234 26.5041C11.7826 27.6504 12.4059 29.1158 12.4893 30.6556V34.3579C12.4893 34.6786 12.5545 34.9961 12.681 35.2921C12.8076 35.5882 12.993 35.857 13.2266 36.0831C13.4602 36.3091 13.7375 36.4879 14.0424 36.6092C14.3473 36.7305 14.6738 36.792 15.0031 36.7899H19.458C20.1204 36.7899 20.7558 36.5337 21.2242 36.0776C21.6927 35.6215 21.9558 35.0029 21.9558 34.3579V30.005C21.9558 29.36 21.6927 28.7414 21.2242 28.2853C20.7558 27.8292 20.1204 27.5729 19.458 27.5729Z" fill="#4142c9"/>
</svg>
