<svg width="64" height="64" viewBox="0 0 64 64" fill="none" xmlns="http://www.w3.org/2000/svg">
<g clip-path="url(#clip0_57_37)">
<path d="M31.9999 5.33331C17.3333 5.33331 5.33325 17.3333 5.33325 32C5.33325 46.6666 17.3333 58.6666 31.9999 58.6666C46.6666 58.6666 58.6666 46.6666 58.6666 32C58.6666 17.3333 46.6666 5.33331 31.9999 5.33331ZM45.0666 21.6L40.5332 43.4666C40.2666 45.0666 39.1999 45.3333 38.1333 44.5333L31.1999 39.2C29.5999 40.8 27.9999 42.1333 27.7332 42.6666C27.1999 42.9333 26.9332 43.4666 26.3999 43.4666C25.5999 43.4666 25.5999 42.9333 25.3333 42.4L22.9333 34.4L15.7333 32C14.1333 31.4666 14.1333 30.4 15.9999 29.6L43.1999 19.2C44.2666 18.9333 45.5999 19.4666 45.0666 21.6ZM38.6666 24L23.4666 33.6L25.8666 41.6L26.3999 36.2666L39.4666 24.5333C40.2666 23.7333 39.7332 23.7333 38.6666 24Z" fill="#FD695A"/>
</g>
<defs>
<clipPath id="clip0_57_37">
<rect width="64" height="64" fill="white"/>
</clipPath>
</defs>
</svg>
