<svg width="74" height="72" viewBox="0 0 74 72" fill="none" xmlns="http://www.w3.org/2000/svg">
<ellipse cx="36.5601" cy="35.512" rx="36.4621" ry="35.5193" fill="#BC5C56" fill-opacity="0.06"/>
<path d="M57.0591 35.0186C57.0582 34.6129 56.8419 34.2365 56.4874 34.0235L52.3144 31.5176L56.4918 28.9847C56.8441 28.7711 57.0585 28.3957 57.0591 27.9916C57.0598 27.5873 56.8465 27.2113 56.4949 26.9967L37.167 15.1999C36.7764 14.9614 36.2802 14.9614 35.8896 15.1999L16.5618 26.9967C16.2102 27.2113 15.9969 27.5873 15.9975 27.9916C15.9981 28.3958 16.2125 28.7712 16.5648 28.9847L20.7136 31.5001L16.563 34.0274C16.2109 34.2418 15.9972 34.6178 15.9976 35.0222C15.998 35.4267 16.2124 35.8023 16.5649 36.0161L20.7137 38.5315L16.563 41.0586C16.2115 41.2727 15.9978 41.6479 15.9976 42.0517C15.9973 42.4556 16.2106 42.831 16.5619 43.0454L35.8897 54.8422C36.085 54.9614 36.3067 55.0211 36.5284 55.0211C36.75 55.0211 36.9718 54.9614 37.167 54.8422L56.4949 43.0454C56.8472 42.8303 57.0606 42.4531 57.0591 42.0481C57.0576 41.643 56.8414 41.2674 56.4874 41.0548L52.3144 38.5489L56.4918 36.016C56.8454 35.8016 57.06 35.4243 57.0591 35.0186ZM19.4717 27.9866L36.5284 17.576L53.585 27.9866C53.4211 28.086 37.0172 38.0319 36.5284 38.3283L19.4717 27.9866ZM53.5772 42.0605L36.5284 52.4663L19.4683 42.0536L22.9881 39.9106L35.8927 47.7348C36.0873 47.8527 36.3078 47.9117 36.5284 47.9117C36.7489 47.9117 36.9694 47.8527 37.164 47.7348L50.0329 39.9321L53.5772 42.0605ZM36.5284 45.3595L19.4737 35.0191L22.9881 32.8793L35.8927 40.7035C36.0873 40.8215 36.3078 40.8805 36.5284 40.8805C36.7489 40.8805 36.9694 40.8215 37.164 40.7035L50.0329 32.9009L53.5717 35.0259C53.4739 35.0852 36.9799 45.0857 36.5284 45.3595Z" fill="#FD695A" stroke="#FD695A" stroke-width="0.5"/>
</svg>
