<svg width="74" height="72" viewBox="0 0 74 72" fill="none" xmlns="http://www.w3.org/2000/svg">
<ellipse cx="37.0843" cy="36.4509" rx="36.4621" ry="35.5193" fill="#7879F1" fill-opacity="0.06"/>
<g clip-path="url(#clip0_21_73)">
<path d="M53.8859 54.9316H17.1632C16.5321 54.9316 16.0204 54.4332 16.0204 53.8183C16.0204 53.2035 16.5321 52.7051 17.1632 52.7051H53.8859C54.517 52.7051 55.0287 53.2035 55.0287 53.8183C55.0287 54.4332 54.517 54.9316 53.8859 54.9316Z" fill="#7879F1"/>
<path d="M24.0961 54.9316H19.5248C18.8937 54.9316 18.382 54.4332 18.382 53.8184V45.6543C18.382 44.6312 19.2365 43.7989 20.2867 43.7989H23.3342C24.3845 43.7989 25.2389 44.6312 25.2389 45.6543V53.8184C25.2389 54.4332 24.7273 54.9316 24.0961 54.9316ZM20.6677 52.7051H22.9533V46.0254H20.6677V52.7051ZM23.3342 46.0254H23.335H23.3342Z" fill="#7879F1"/>
<path d="M33.2387 54.9316H28.6674C28.0363 54.9316 27.5246 54.4331 27.5246 53.8183V42.9825C27.5246 41.9594 28.379 41.127 29.4293 41.127H32.4768C33.5271 41.127 34.3815 41.9594 34.3815 42.9825V53.8183C34.3815 54.4331 33.8698 54.9316 33.2387 54.9316ZM29.8102 52.705H32.0959V43.3536H29.8102V52.705ZM32.4768 43.3536H32.4776H32.4768Z" fill="#7879F1"/>
<path d="M42.3813 54.9316H37.81C37.1789 54.9316 36.6672 54.4331 36.6672 53.8183V38.9004C36.6672 37.8773 37.5216 37.045 38.5719 37.045H41.6194C42.6697 37.045 43.5241 37.8773 43.5241 38.9004V53.8183C43.5241 54.4331 43.0124 54.9316 42.3813 54.9316ZM38.9528 52.705H41.2385V39.2715H38.9528V52.705ZM41.6194 39.2715H41.6202H41.6194Z" fill="#7879F1"/>
<path d="M51.5239 54.9316H46.9526C46.3214 54.9316 45.8098 54.4332 45.8098 53.8184V31.4787C45.8098 30.4556 46.6642 29.6232 47.7145 29.6232H50.762C51.8122 29.6232 52.6667 30.4556 52.6667 31.4787V53.8184C52.6667 54.4332 52.155 54.9316 51.5239 54.9316ZM48.0954 52.7051H50.381V31.8498H48.0954V52.7051ZM50.762 31.8498H50.7627H50.762Z" fill="#7879F1"/>
<path d="M17.1632 40.8531C16.5321 40.8531 16.0204 40.3547 16.0204 39.7398C16.0204 39.125 16.5321 38.6266 17.1632 38.6266C23.8835 38.6266 31.2004 36.2427 37.7661 31.914C43.8063 27.9319 48.6194 22.7114 50.9712 17.5911C51.229 17.0299 51.9051 16.7784 52.4811 17.0297C53.0573 17.2807 53.3153 17.9393 53.0575 18.5005C50.5367 23.9887 45.4301 29.5499 39.0472 33.758C32.1073 38.3333 24.3353 40.8531 17.1632 40.8531Z" fill="#7879F1"/>
<path d="M53.8849 25.9623C53.3802 25.9623 52.9185 25.6342 52.7818 25.1368L51.2061 19.4086L45.3258 20.9435C44.716 21.1028 44.0895 20.7502 43.9262 20.1564C43.7628 19.5625 44.1246 18.952 44.7342 18.7929L51.7184 16.9699C52.3283 16.8107 52.9547 17.1632 53.1181 17.757L54.9895 24.5606C55.1528 25.1545 54.7911 25.7649 54.1814 25.9241C54.0823 25.9499 53.9828 25.9623 53.8849 25.9623Z" fill="#7879F1"/>
</g>
<defs>
<clipPath id="clip0_21_73">
<rect width="39.0086" height="38" fill="white" transform="translate(16.0204 16.9316)"/>
</clipPath>
</defs>
</svg>
