<svg width="74" height="72" viewBox="0 0 74 72" fill="none" xmlns="http://www.w3.org/2000/svg">
<ellipse cx="36.9623" cy="36.4509" rx="36.4621" ry="35.5193" fill="#E9F6EE"/>
<g clip-path="url(#clip0_21_18)">
<path d="M54.9723 26.0045L56.9638 24.0648C57.2946 23.7422 57.4036 23.2619 57.2429 22.8337C57.0822 22.4053 56.6809 22.1068 56.2141 22.0684L52.5197 21.7647L52.2079 18.1658C52.1688 17.7114 51.8621 17.3204 51.4226 17.1639C50.983 17.007 50.4899 17.1132 50.1588 17.4358L48.1673 19.3755C44.9468 17.452 41.2646 16.4391 37.4558 16.4391C31.9719 16.4391 26.816 18.5195 22.9383 22.2969C19.0605 26.0744 16.9249 31.097 16.9249 36.4391C16.9249 41.7812 19.0605 46.8038 22.9383 50.5812C26.816 54.3587 31.9719 56.4391 37.4558 56.4391C42.9397 56.4391 48.0956 54.3587 51.9733 50.5812C55.851 46.8038 57.9866 41.7812 57.9866 36.4391C57.9866 32.7288 56.9469 29.142 54.9723 26.0045ZM50.2074 22.9479C50.2569 23.5173 50.7205 23.969 51.3051 24.0172L53.4307 24.1918L50.5535 26.9945L47.4158 26.7366L47.151 23.68L50.0282 20.8773L50.2074 22.9479ZM41.5459 36.4391C41.5459 38.636 39.7111 40.4235 37.4558 40.4235C35.2005 40.4235 33.3656 38.636 33.3656 36.4391C33.3656 34.2421 35.2005 32.4547 37.4558 32.4547C38.1466 32.4547 38.7972 32.6229 39.3683 32.9186L36.6052 35.6105C36.1353 36.068 36.1353 36.8099 36.6052 37.2676C36.8399 37.4965 37.1478 37.611 37.4558 37.611C37.7637 37.611 38.0717 37.4965 38.3063 37.2676L41.0697 34.576C41.3733 35.1323 41.5459 35.7662 41.5459 36.4391ZM41.117 31.2151C40.0738 30.5193 38.8129 30.111 37.4558 30.111C33.8738 30.111 30.9597 32.9497 30.9597 36.4391C30.9597 39.9285 33.8738 42.7672 37.4558 42.7672C41.0378 42.7672 43.9519 39.9285 43.9519 36.4391C43.9519 35.1171 43.5327 33.8887 42.8184 32.8725L46.2532 29.5266C47.8224 31.418 48.7638 33.8234 48.7638 36.4391C48.7638 42.513 43.6909 47.4547 37.4558 47.4547C31.2206 47.4547 26.1478 42.513 26.1478 36.4391C26.1478 30.3652 31.2206 25.4235 37.4558 25.4235C40.1409 25.4235 42.6101 26.3405 44.5518 27.8691L41.117 31.2151ZM50.2719 48.9238C46.8487 52.2588 42.2971 54.0953 37.4558 54.0953C32.6144 54.0953 28.0628 52.2588 24.6397 48.9238C21.2162 45.5892 19.3309 41.1553 19.3309 36.4391C19.3309 31.7229 21.2162 27.289 24.6397 23.9543C28.0628 20.6194 32.6144 18.7828 37.4558 18.7828C40.623 18.7828 43.6909 19.5754 46.4117 21.0857L45.0549 22.4074C44.8356 22.621 44.7106 22.9073 44.7028 23.2061C44.7019 23.2488 44.7031 23.2915 44.7066 23.3345L44.8685 25.2043C42.7298 23.8604 40.1847 23.0797 37.4558 23.0797C29.8939 23.0797 23.7418 29.0728 23.7418 36.4391C23.7418 43.8054 29.8939 49.7985 37.4558 49.7985C45.0176 49.7985 51.1698 43.8054 51.1698 36.4391C51.1698 33.7807 50.3684 31.3015 48.9887 29.218L50.9082 29.3758C50.942 29.3782 50.9758 29.3798 51.0093 29.3798C51.015 29.3798 51.0209 29.3792 51.0266 29.3788C51.0426 29.3788 51.0582 29.3776 51.0742 29.3767C51.1002 29.3752 51.1265 29.3737 51.1522 29.3706C51.1682 29.3685 51.1842 29.366 51.2001 29.3636C51.2255 29.3596 51.2506 29.355 51.2756 29.3495C51.2916 29.3459 51.3073 29.3419 51.3229 29.338C51.3474 29.3315 51.3715 29.3242 51.3956 29.3163C51.4113 29.3111 51.4266 29.3059 51.442 29.3001C51.4655 29.2913 51.4887 29.2815 51.5118 29.2708C51.5266 29.2644 51.5413 29.258 51.556 29.2507C51.5792 29.2391 51.6018 29.2263 51.624 29.2134C51.6375 29.2055 51.6509 29.1982 51.6641 29.1902C51.6879 29.175 51.7108 29.1585 51.7336 29.1417C51.7443 29.1338 51.7553 29.1268 51.7656 29.1185C51.7982 29.0929 51.8298 29.0657 51.8599 29.0364L53.2167 27.7147C54.7671 30.3652 55.5807 33.3538 55.5807 36.4391C55.5807 41.1553 53.6954 45.5892 50.2719 48.9238Z" fill="#34D27B"/>
</g>
<defs>
<clipPath id="clip0_21_18">
<rect width="41.0617" height="40" fill="white" transform="translate(16.9249 16.4391)"/>
</clipPath>
</defs>
</svg>
