<svg width="73" height="72" viewBox="0 0 73 72" fill="none" xmlns="http://www.w3.org/2000/svg">
<ellipse cx="36.4621" cy="35.5193" rx="36.4621" ry="35.5193" fill="#68CDFD" fill-opacity="0.08"/>
<path d="M30.8276 38.2851L33.8087 35.812L33.8089 35.8119L33.6493 35.6195L30.8276 38.2851ZM30.8276 38.2851L33.8089 40.7583C33.8089 40.7583 33.8089 40.7583 33.8089 40.7583C34.1588 41.0486 34.202 41.5641 33.9028 41.9065L33.9028 41.9065C33.7384 42.0946 33.5062 42.1896 33.2753 42.1896C33.0878 42.1896 32.8979 42.1268 32.7427 41.998L29.014 38.9051L29.0139 38.905C28.8291 38.7516 28.721 38.5256 28.721 38.2851C28.721 38.0446 28.8297 37.8189 29.0136 37.6657L29.014 37.6654L32.7426 34.5726L32.7427 34.5725L32.9023 34.7649L30.8276 38.2851Z" fill="#53C8FF" stroke="#53C8FF" stroke-width="0.5"/>
<path d="M43.0836 38.2851L40.1023 40.7583L40.1022 40.7584C39.753 41.0485 39.709 41.5638 40.0087 41.9065C40.0087 41.9065 40.0088 41.9066 40.0089 41.9066L40.197 41.742L43.0836 38.2851ZM43.0836 38.2851L40.1023 35.8119C40.1023 35.8119 40.1023 35.8119 40.1023 35.8119C39.7527 35.5219 39.7092 35.0065 40.0087 34.6637L43.0836 38.2851ZM44.8972 37.6654L44.8973 37.6655C45.082 37.8189 45.1902 38.0449 45.1902 38.2851C45.1902 38.5256 45.0821 38.7516 44.8973 38.905L44.8972 38.9051L41.1685 41.998L44.8972 37.6654ZM44.8972 37.6654L41.1687 34.5727C41.1687 34.5727 41.1687 34.5727 41.1686 34.5726M44.8972 37.6654L41.1686 34.5726M41.1686 34.5726C40.823 34.2854 40.3046 34.3252 40.0087 34.6637L41.1685 34.5725L41.1686 34.5726Z" fill="#53C8FF" stroke="#53C8FF" stroke-width="0.5"/>
<path d="M35.4655 44.4922L35.4662 44.4924C35.5221 44.5037 35.5786 44.5096 35.6354 44.5096C36.013 44.5096 36.3593 44.2525 36.4428 43.8667L36.4428 43.8667L38.7667 33.1185L38.7667 33.1185C38.8629 32.6734 38.5694 32.2465 38.1276 32.1558L38.1275 32.1558C37.6871 32.0655 37.246 32.3389 37.1503 32.7814L37.1503 32.7814L34.8264 43.5295C34.8264 43.5295 34.8264 43.5295 34.8264 43.5295C34.7302 43.9743 35.0237 44.4015 35.4655 44.4922Z" fill="#53C8FF" stroke="#53C8FF" stroke-width="0.5"/>
<path d="M23.3732 50.3651H50.5379C52.8029 50.3651 54.6568 48.5688 54.6568 46.3463V23.8865C54.6568 21.6643 52.8029 19.8677 50.5379 19.8677H23.3732C21.1082 19.8677 19.2543 21.6643 19.2543 23.8865V46.3463C19.2543 48.5688 21.1082 50.3651 23.3732 50.3651ZM20.9068 23.8865C20.9068 22.5717 22.0073 21.4903 23.3732 21.4903H50.5379C51.9038 21.4903 53.0043 22.5717 53.0043 23.8865V46.3463C53.0043 47.6611 51.9038 48.7425 50.5379 48.7425H23.3732C22.0073 48.7425 20.9068 47.6611 20.9068 46.3463V23.8865Z" fill="#53C8FF" stroke="#53C8FF" stroke-width="0.5"/>
<path d="M20.0806 29.3561H53.8306C54.2808 29.3561 54.6568 28.9991 54.6568 28.5448C54.6568 28.0909 54.2808 27.7335 53.8306 27.7335H20.0806C19.6303 27.7335 19.2543 28.0909 19.2543 28.5448C19.2543 28.9991 19.6304 29.3561 20.0806 29.3561Z" fill="#53C8FF" stroke="#53C8FF" stroke-width="0.5"/>
<path d="M30.67 26.42C29.6648 26.42 28.8464 25.6229 28.8464 24.6437C28.8464 23.6642 29.6648 22.8673 30.67 22.8673C31.6754 22.8673 32.4935 23.6642 32.4935 24.6437C32.4935 25.6229 31.6754 26.42 30.67 26.42ZM30.67 23.99C30.3002 23.99 29.9989 24.2831 29.9989 24.6437C29.9989 25.0042 30.3002 25.2974 30.67 25.2974C31.0401 25.2974 31.341 25.0042 31.341 24.6437C31.341 24.2831 31.0401 23.99 30.67 23.99Z" fill="#53C8FF"/>
<path d="M25.0673 26.4028C24.0618 26.4028 23.2438 25.6059 23.2438 24.6264C23.2438 23.6469 24.0618 22.85 25.0673 22.85C26.0728 22.85 26.8908 23.6469 26.8908 24.6264C26.8908 25.6059 26.0728 26.4028 25.0673 26.4028ZM25.0673 23.9727C24.6975 23.9727 24.3962 24.2662 24.3962 24.6264C24.3962 24.9869 24.6975 25.2801 25.0673 25.2801C25.4374 25.2801 25.7384 24.9869 25.7384 24.6264C25.7384 24.2662 25.4374 23.9727 25.0673 23.9727Z" fill="#53C8FF"/>
<path d="M36.273 26.4371C35.2679 26.4371 34.4498 25.6403 34.4498 24.6608C34.4498 23.6816 35.2679 22.8847 36.273 22.8847C37.2785 22.8847 38.0965 23.6816 38.0965 24.6608C38.0965 25.6403 37.2785 26.4371 36.273 26.4371ZM36.273 24.007C35.9032 24.007 35.6023 24.3002 35.6023 24.6608C35.6023 25.0213 35.9032 25.3145 36.273 25.3145C36.6431 25.3145 36.9441 25.0213 36.9441 24.6608C36.9441 24.3002 36.6431 24.007 36.273 24.007Z" fill="#53C8FF"/>
</svg>
